<svg xmlns="http://www.w3.org/2000/svg" width="100" height="100" viewBox="0 0 100 100"><path fill="#f9b621" d="M74.007 18.001c.204 0 .403.056.576.163L91.01 28.273c.61.375.989 1.054.989 1.77v29.085c0 .724-.367 1.384-.982 1.766L51.055 85.699a2 2 0 0 1-2.11 0L8.982 60.895A2.07 2.07 0 0 1 8 59.129V30.044c0-.716.379-1.395.989-1.77l16.427-10.109a1.1 1.1 0 0 1 1.156.002l15.354 9.53c2.426 1.506 5.218 2.302 8.073 2.302s5.647-.796 8.073-2.302l15.354-9.53a1.1 1.1 0 0 1 .581-.166"/><path fill="#f5905f" d="M50 52 8.228 29.125a2.1 2.1 0 0 0-.228.919v29.085c0 .724.367 1.384.982 1.766L48.945 85.7c.317.196.682.3 1.055.3z"/><path fill="#ee4267" d="m50 52 41.772-22.875c.141.283.228.595.228.919v29.085c0 .724-.367 1.384-.982 1.766L51.055 85.699A2 2 0 0 1 50 86z"/><path fill="#ee5490" d="M92 30.04v29.09c0 .72-.37 1.38-.98 1.76L85 64.63v-31.8l6.77-3.71c.14.29.23.6.23.92"/><path fill="#ef5684" d="M85 32.83v31.8l-6 3.72V36.11z"/><path fill="#ef517b" d="M79 36.11v32.24l-6 3.73V39.4z"/><path fill="#ef4a75" d="M73 39.4v32.68l-6 3.72V42.69z"/><path fill="#f2ac0f" d="M41 27.12v19.95l-6-3.29V23.4z"/><path fill="#f59173" d="M47 29.7v20.66l-6-3.29V27.12l.93.58c1.56.97 3.28 1.64 5.07 2"/><path fill="#f27c7c" d="M53 29.7v20.66L50 52l-3-1.64V29.7c.98.2 1.99.3 3 .3s2.02-.1 3-.3"/><path fill="#f16e7c" d="M59 27.12v19.95l-6 3.29V29.7c1.79-.36 3.51-1.03 5.07-2z"/><path fill="#ef6388" d="M65 23.4v20.38l-6 3.29V27.12z"/><path fill="#ee5490" d="M91.77 29.12 65 43.78V23.4l8.43-5.23c.17-.11.37-.17.58-.17.2 0 .4.06.57.16l16.43 10.11c.33.21.6.51.76.85"/><path fill="#1f212b" d="M50 87a3 3 0 0 1-1.582-.451L8.455 61.744A3.06 3.06 0 0 1 7 59.128V30.044a3.1 3.1 0 0 1 1.465-2.622l16.427-10.109a2.14 2.14 0 0 1 2.207.002l15.355 9.532c2.268 1.407 4.877 2.151 7.546 2.151s5.278-.744 7.546-2.151l15.354-9.53a2.13 2.13 0 0 1 2.209-.004l16.427 10.109A3.1 3.1 0 0 1 93 30.044v29.084c0 1.072-.544 2.05-1.455 2.616L51.582 86.549A3 3 0 0 1 50 87M25.416 18.165l.524.852L9.514 29.125a1.08 1.08 0 0 0-.514.919v29.084c0 .376.19.718.51.917L49.473 84.85c.316.196.738.197 1.055 0L90.49 60.045c.32-.198.51-.541.51-.917V30.044c0-.372-.196-.724-.514-.919L74.007 19.001a.1.1 0 0 0-.055.016L58.6 28.546c-2.584 1.604-5.559 2.452-8.601 2.452s-6.017-.848-8.601-2.452l-15.354-9.53z"/><path fill="#1f212b" d="M50 52.57 7.76 29.438l.48-.876L50 51.43l41.76-22.868.48.876z"/><path fill="#1f212b" d="M49.5 52h1v35h-1zm-20 16.833a.5.5 0 0 1-.264-.075l-16.055-9.965A2.49 2.49 0 0 1 12 56.669V35.5a.5.5 0 0 1 1 0v21.169c0 .522.265.999.709 1.274l16.055 9.965a.5.5 0 0 1-.264.925m15 9.311a.5.5 0 0 1-.264-.075l-1-.621a.5.5 0 0 1 .527-.849l1 .621a.5.5 0 0 1-.263.924m-4-2.483a.5.5 0 0 1-.264-.075l-4-2.483a.5.5 0 0 1 .527-.849l4 2.483a.5.5 0 0 1-.263.924M84.418 30a.5.5 0 0 1-.262-.074l-9.351-5.754a1.49 1.49 0 0 0-1.577.003l-5.465 3.392a.5.5 0 1 1-.527-.849l5.465-3.392a2.49 2.49 0 0 1 2.628-.005l9.351 5.754a.5.5 0 0 1-.262.925m-20.717 0a.5.5 0 0 1-.264-.924l1.611-1a.5.5 0 1 1 .527.849l-1.611 1a.5.5 0 0 1-.263.075"/></svg>